<svg id="Layer_1" data-name="Layer 1" xmlns="http://www.w3.org/2000/svg" viewBox="0 0 928.34 259.91">
  <defs>
  </defs>
  <title>maxcont</title>
  <g class="cls-1"><path
    d="M353.7,68.22a23.23,23.23,0,0,1-9.93-2.08,22.66,22.66,0,0,1-7.66-5.76,25.64,25.64,0,0,1-4.89-8.79,35.17,35.17,0,0,1-1.71-11.18,34.19,34.19,0,0,1,1.74-11.11,26.92,26.92,0,0,1,4.89-8.83,22.08,22.08,0,0,1,7.62-5.8,23.22,23.22,0,0,1,9.93-2.08,24.14,24.14,0,0,1,9.74,1.78,22.1,22.1,0,0,1,6.71,4.4,18.75,18.75,0,0,1,4,5.65A19.34,19.34,0,0,1,375.84,30h-9.93a13.42,13.42,0,0,0-1.25-2.46,11.39,11.39,0,0,0-2.35-2.65,13.44,13.44,0,0,0-3.6-2.12,13.14,13.14,0,0,0-5-.87,11.46,11.46,0,0,0-5.87,1.48,13,13,0,0,0-4.25,4A18.58,18.58,0,0,0,341,33.24a29.86,29.86,0,0,0,0,14.33,18.57,18.57,0,0,0,2.58,5.88,13,13,0,0,0,4.25,4,11.46,11.46,0,0,0,5.88,1.48,13.34,13.34,0,0,0,5.08-.87,12.83,12.83,0,0,0,3.6-2.16,12,12,0,0,0,2.35-2.69A13.38,13.38,0,0,0,366,50.71h9.85a18.09,18.09,0,0,1-1.55,5.38,19.06,19.06,0,0,1-4,5.72,22.26,22.26,0,0,1-6.75,4.55A23.74,23.74,0,0,1,353.7,68.22Z"
    transform="translate(-8.06 -12.58)"/><path
    d="M399.57,28a19.43,19.43,0,0,1,7.66,1.48,17.55,17.55,0,0,1,6,4.13,18.41,18.41,0,0,1,3.87,6.37,23.59,23.59,0,0,1,1.36,8.19,23.35,23.35,0,0,1-1.36,8.11,18.4,18.4,0,0,1-3.87,6.37,18,18,0,0,1-6,4.17,19,19,0,0,1-7.66,1.52,18.74,18.74,0,0,1-7.62-1.52,18.05,18.05,0,0,1-6-4.17,18.4,18.4,0,0,1-3.87-6.37,23.35,23.35,0,0,1-1.36-8.11,23.59,23.59,0,0,1,1.36-8.19A18.41,18.41,0,0,1,386,33.58a17.61,17.61,0,0,1,6-4.13A19.15,19.15,0,0,1,399.57,28Zm0,31.69a8.12,8.12,0,0,0,6.75-3.33A10.75,10.75,0,0,0,408,52.7a18.61,18.61,0,0,0,0-9.13,10.77,10.77,0,0,0-1.71-3.63,8.4,8.4,0,0,0-13.49,0,10.77,10.77,0,0,0-1.71,3.63,17.39,17.39,0,0,0-.57,4.56,17.09,17.09,0,0,0,.57,4.49,11.18,11.18,0,0,0,1.71,3.67,8.15,8.15,0,0,0,2.84,2.47A8.24,8.24,0,0,0,399.57,59.66Z"
    transform="translate(-8.06 -12.58)"/><path
    d="M435,67.31h-9.63V29H435v5.53a13,13,0,0,1,1.48-2.12,11.15,11.15,0,0,1,2.35-2.08,13,13,0,0,1,3.26-1.55,13.28,13.28,0,0,1,4.13-.61,15.62,15.62,0,0,1,6,1.1,12.52,12.52,0,0,1,4.59,3.18,14.4,14.4,0,0,1,2.92,5,20.31,20.31,0,0,1,1,6.67v23.2H451V45.86q0-4.47-2.12-6.78a7.44,7.44,0,0,0-5.76-2.31,7.59,7.59,0,0,0-6,2.39A9.76,9.76,0,0,0,435,45.86Z"
    transform="translate(-8.06 -12.58)"/><path d="M496.45,67.31H486.9q-6.59,0-9.74-3.12T474,55V37.06h-9.48V29H474V13.49h9.7V29h12.74v8.11H483.71v15a7.54,7.54,0,0,0,1.36,5q1.36,1.6,5.15,1.6h6.22Z" transform="translate(-8.06 -12.58)"/><path
    d="M528,61.7a10.77,10.77,0,0,1-1.06,1.74,10.91,10.91,0,0,1-2.08,2.12,12.59,12.59,0,0,1-3.22,1.82,12.26,12.26,0,0,1-4.55.76,15,15,0,0,1-6.37-1.36,14.59,14.59,0,0,1-5.12-3.94,18.69,18.69,0,0,1-3.37-6.29A27,27,0,0,1,501,48.13a27,27,0,0,1,1.21-8.42,18.71,18.71,0,0,1,3.37-6.29,14.61,14.61,0,0,1,5.12-3.94,15,15,0,0,1,6.37-1.36,12.56,12.56,0,0,1,4.59.76,11.85,11.85,0,0,1,3.22,1.82,10.43,10.43,0,0,1,2,2.12,16.22,16.22,0,0,1,1,1.67V29h9.63V67.31H528Zm.08-13.49A14.09,14.09,0,0,0,525.82,40a7.93,7.93,0,0,0-12.74,0,14.08,14.08,0,0,0-2.24,8.25,14.22,14.22,0,0,0,2.24,8.32,7.93,7.93,0,0,0,12.74,0A14.23,14.23,0,0,0,528.06,48.21Z"
    transform="translate(-8.06 -12.58)"/><path
    d="M569.38,40A5.74,5.74,0,0,0,568,38.45a8.4,8.4,0,0,0-2.2-1.29,8.18,8.18,0,0,0-3.15-.55,6.94,6.94,0,0,0-3.49.86,8,8,0,0,0-2.62,2.43,11.65,11.65,0,0,0-1.67,3.67,17.37,17.37,0,0,0-.57,4.56A16.35,16.35,0,0,0,555,52.7a12.88,12.88,0,0,0,1.67,3.67,7.55,7.55,0,0,0,2.62,2.43,7.15,7.15,0,0,0,3.52.86A8.41,8.41,0,0,0,566,59.1a7.25,7.25,0,0,0,2.16-1.32,7,7,0,0,0,1.29-1.54q.45-.77.68-1.21h9.25a14.61,14.61,0,0,1-1.06,3.79,14.19,14.19,0,0,1-2.84,4.36,16.6,16.6,0,0,1-5.12,3.6,18.09,18.09,0,0,1-7.81,1.52,17.17,17.17,0,0,1-12.89-5.61,19,19,0,0,1-3.79-6.37,23.58,23.58,0,0,1-1.36-8.19,23.59,23.59,0,0,1,1.36-8.19,19.4,19.4,0,0,1,3.75-6.37,16.82,16.82,0,0,1,5.69-4.13A17.31,17.31,0,0,1,562.48,28a18.22,18.22,0,0,1,7.77,1.48A16.77,16.77,0,0,1,575.36,33a14.52,14.52,0,0,1,2.92,4.36,13.89,13.89,0,0,1,1.1,3.87h-9.32Q569.83,40.79,569.38,40Z"
    transform="translate(-8.06 -12.58)"/><path d="M613.57,67.31H604q-6.59,0-9.74-3.12T591.13,55V37.06h-9.48V29h9.48V13.49h9.7V29h12.74v8.11H600.83v15a7.54,7.54,0,0,0,1.36,5q1.36,1.6,5.15,1.6h6.22Z" transform="translate(-8.06 -12.58)"/><path
    d="M17.69,165.2H8.06V109.41h9.63v23.12a14.38,14.38,0,0,1,1.48-2.16,10.66,10.66,0,0,1,2.35-2.12,14,14,0,0,1,3.26-1.59,12.57,12.57,0,0,1,4.13-.64,15.15,15.15,0,0,1,6,1.14,12.7,12.7,0,0,1,4.59,3.26,14.74,14.74,0,0,1,2.92,5.12,20.66,20.66,0,0,1,1,6.71v23h-9.7V144.05q0-4.55-2.12-7a7.27,7.27,0,0,0-5.76-2.43,7.54,7.54,0,0,0-6,2.43q-2.12,2.43-2.12,7Z"
    transform="translate(-8.06 -12.58)"/><path
    d="M68.33,125.86a18.84,18.84,0,0,1,7.47,1.44,16.08,16.08,0,0,1,5.72,4.06,18.35,18.35,0,0,1,3.64,6.33,25.09,25.09,0,0,1,1.29,8.26v1.59H59.68a12.64,12.64,0,0,0,2.65,7.54,8.2,8.2,0,0,0,6.75,3,10.64,10.64,0,0,0,3.34-.45,8.65,8.65,0,0,0,2.27-1.1,7,7,0,0,0,1.4-1.25q.49-.61.72-.91h9.4A12.46,12.46,0,0,1,85,157.89a13.61,13.61,0,0,1-3,3.87,16.4,16.4,0,0,1-5.16,3.15,20.87,20.87,0,0,1-7.81,1.29,19.87,19.87,0,0,1-7.92-1.52,17.22,17.22,0,0,1-6-4.21,18.62,18.62,0,0,1-3.79-6.41,23.71,23.71,0,0,1-1.33-8,24.83,24.83,0,0,1,1.29-8.19A18.42,18.42,0,0,1,55,131.47a16.63,16.63,0,0,1,5.76-4.13A18.6,18.6,0,0,1,68.33,125.86Zm0,7.43a7.79,7.79,0,0,0-5.76,2.12,10.28,10.28,0,0,0-2.73,5.76H76.66a10.42,10.42,0,0,0-2.8-5.84A7.64,7.64,0,0,0,68.33,133.29Z"
    transform="translate(-8.06 -12.58)"/><path d="M93.34,109.41H103V165.2h-9.7Z" transform="translate(-8.06 -12.58)"/><path d="M112.9,109.41h9.7V165.2h-9.7Z" transform="translate(-8.06 -12.58)"/><path
    d="M148.45,125.86a19.43,19.43,0,0,1,7.66,1.48,17.55,17.55,0,0,1,6,4.13,18.41,18.41,0,0,1,3.87,6.37,23.59,23.59,0,0,1,1.36,8.19,23.35,23.35,0,0,1-1.36,8.11,18.4,18.4,0,0,1-3.87,6.37,18,18,0,0,1-6,4.17,19,19,0,0,1-7.66,1.52,18.74,18.74,0,0,1-7.62-1.52,18.05,18.05,0,0,1-6-4.17,18.4,18.4,0,0,1-3.87-6.37,23.35,23.35,0,0,1-1.36-8.11,23.59,23.59,0,0,1,1.36-8.19,18.41,18.41,0,0,1,3.87-6.37,17.61,17.61,0,0,1,6-4.13A19.15,19.15,0,0,1,148.45,125.86Zm0,31.69a8.12,8.12,0,0,0,6.75-3.33,10.75,10.75,0,0,0,1.71-3.63,18.61,18.61,0,0,0,0-9.13,10.77,10.77,0,0,0-1.71-3.63,8.4,8.4,0,0,0-13.49,0,10.77,10.77,0,0,0-1.71,3.63,17.39,17.39,0,0,0-.57,4.56,17.09,17.09,0,0,0,.57,4.49,11.18,11.18,0,0,0,1.71,3.67,8.15,8.15,0,0,0,2.84,2.47A8.24,8.24,0,0,0,148.45,157.55Z"
    transform="translate(-8.06 -12.58)"/><path
    d="M238.67,165.58a28.77,28.77,0,0,1-3.6,4.17,27.51,27.51,0,0,1-5.91,4.28,38.62,38.62,0,0,1-8.57,3.37,43.2,43.2,0,0,1-11.41,1.36,42,42,0,0,1-15.58-2.69,32.77,32.77,0,0,1-11.45-7.43,31.83,31.83,0,0,1-7.09-11.07A37.68,37.68,0,0,1,172.64,144a37.24,37.24,0,0,1,2.65-14.18,33.38,33.38,0,0,1,7.43-11.26,34,34,0,0,1,11.33-7.39,38,38,0,0,1,14.37-2.65,40,40,0,0,1,14.44,2.39,29.87,29.87,0,0,1,10.31,6.44,26.13,26.13,0,0,1,6.18,9.4,31.2,31.2,0,0,1,2,11.26,30.87,30.87,0,0,1-1.25,9,21.91,21.91,0,0,1-3.56,7.13,16.85,16.85,0,0,1-5.57,4.7,15.46,15.46,0,0,1-7.28,1.71,12.56,12.56,0,0,1-6.44-1.4,7.19,7.19,0,0,1-3.18-3.52,12.36,12.36,0,0,1-3.68,3.41,11,11,0,0,1-6,1.52,14.33,14.33,0,0,1-5.69-1.1,13.32,13.32,0,0,1-4.51-3.15,14.08,14.08,0,0,1-3-5,20.47,20.47,0,0,1-1.06-6.86,21.67,21.67,0,0,1,1.1-7,16.83,16.83,0,0,1,3.15-5.65,14.7,14.7,0,0,1,4.93-3.75,14.86,14.86,0,0,1,6.44-1.36,9.7,9.7,0,0,1,6.14,1.78,11.07,11.07,0,0,1,3.26,3.83l.91-5.08h8.64l-3.79,21.76a5.55,5.55,0,0,0,.38,3.64,3.07,3.07,0,0,0,3,1.36,7.16,7.16,0,0,0,3.56-1,9.89,9.89,0,0,0,3.15-3,15.85,15.85,0,0,0,2.24-5,26.74,26.74,0,0,0,.83-7.05,25,25,0,0,0-1.67-9.29,19.32,19.32,0,0,0-4.93-7.2,22.84,22.84,0,0,0-8-4.66,33.31,33.31,0,0,0-11-1.67,29.87,29.87,0,0,0-11.3,2.08,26.2,26.2,0,0,0-8.91,5.88,26.93,26.93,0,0,0-5.87,9.14,32.09,32.09,0,0,0-2.12,11.94,30.35,30.35,0,0,0,2,11.3,25,25,0,0,0,5.84,8.83,26.6,26.6,0,0,0,9.13,5.72,33.15,33.15,0,0,0,11.94,2,36.07,36.07,0,0,0,7.35-.68,33.47,33.47,0,0,0,5.69-1.67,28.52,28.52,0,0,0,4.21-2.08,30,30,0,0,0,2.92-2ZM206.9,134.73a6.57,6.57,0,0,0-5.5,2.74,11.16,11.16,0,0,0-2.08,7,9.42,9.42,0,0,0,1.63,5.79,5.63,5.63,0,0,0,4.81,2.18,6.65,6.65,0,0,0,5.57-2.74,11.3,11.3,0,0,0,2.08-7,9.12,9.12,0,0,0-1.67-5.75A5.78,5.78,0,0,0,206.9,134.73Z"
    transform="translate(-8.06 -12.58)"/><path d="M263.91,135V165.2h-9.7V135h-9.48v-8.11h9.48v-5.61q0-5.61,3.11-8.72t9.63-3.11h14.48v7.73H270q-3.26,0-4.66,1.52a6.37,6.37,0,0,0-1.4,4.47v3.71h12.21V135Z" transform="translate(-8.06 -12.58)"/><path
    d="M297.49,125.86a19.43,19.43,0,0,1,7.66,1.48,17.55,17.55,0,0,1,6,4.13,18.41,18.41,0,0,1,3.87,6.37,23.59,23.59,0,0,1,1.36,8.19,23.35,23.35,0,0,1-1.36,8.11,18.4,18.4,0,0,1-3.87,6.37,18,18,0,0,1-6,4.17,19,19,0,0,1-7.66,1.52,18.74,18.74,0,0,1-7.62-1.52,18.05,18.05,0,0,1-6-4.17,18.4,18.4,0,0,1-3.87-6.37,23.35,23.35,0,0,1-1.36-8.11,23.59,23.59,0,0,1,1.36-8.19,18.41,18.41,0,0,1,3.87-6.37,17.61,17.61,0,0,1,6-4.13A19.15,19.15,0,0,1,297.49,125.86Zm0,31.69a8.12,8.12,0,0,0,6.75-3.33,10.75,10.75,0,0,0,1.71-3.63,18.61,18.61,0,0,0,0-9.13,10.77,10.77,0,0,0-1.71-3.63,8.4,8.4,0,0,0-13.49,0,10.77,10.77,0,0,0-1.71,3.63,17.39,17.39,0,0,0-.57,4.56,17.09,17.09,0,0,0,.57,4.49,11.18,11.18,0,0,0,1.71,3.67,8.15,8.15,0,0,0,2.84,2.47A8.24,8.24,0,0,0,297.49,157.55Z"
    transform="translate(-8.06 -12.58)"/><path d="M333,165.2h-9.63V126.84H333v6.22a11.18,11.18,0,0,1,1.17-2,8.14,8.14,0,0,1,2.24-2.08,14.74,14.74,0,0,1,3.53-1.63,16.31,16.31,0,0,1,5-.68h7v9.63h-8.42q-5.69,0-8.11,2.12T333,145Z" transform="translate(-8.06 -12.58)"/><path
    d="M382.32,159.21l-1.06,1.55a11.5,11.5,0,0,1-2.12,2.24,14.07,14.07,0,0,1-3.34,2,11.37,11.37,0,0,1-4.62.87,14.83,14.83,0,0,1-11.45-5.31,19.38,19.38,0,0,1-3.49-6.25,25.23,25.23,0,0,1-1.29-8.38,25.57,25.57,0,0,1,1.29-8.41,18.89,18.89,0,0,1,3.49-6.25,15.16,15.16,0,0,1,5.15-3.9,14.83,14.83,0,0,1,6.29-1.36,11.53,11.53,0,0,1,4.59.83,14.25,14.25,0,0,1,3.3,1.93,10.76,10.76,0,0,1,2.12,2.2q.76,1.1,1.06,1.63v-5.76h9.63v37.22a21.75,21.75,0,0,1-1.14,7.2,14.77,14.77,0,0,1-3.41,5.57,15.47,15.47,0,0,1-5.76,3.6,23.85,23.85,0,0,1-8.26,1.29,22.24,22.24,0,0,1-8.19-1.33,19.27,19.27,0,0,1-5.46-3.15,12.79,12.79,0,0,1-3.11-3.71,12.38,12.38,0,0,1-1.21-3h10.46a9.13,9.13,0,0,0,.61.72,6.22,6.22,0,0,0,1.33,1,9.11,9.11,0,0,0,2.24.94,12.1,12.1,0,0,0,3.34.4q4.47,0,6.75-2.48t2.27-7.05Zm.08-13.34a13.43,13.43,0,0,0-2.39-8.25,7.52,7.52,0,0,0-6.33-3.2,7.66,7.66,0,0,0-6.48,3.2,13.43,13.43,0,0,0-2.39,8.25,16.14,16.14,0,0,0,.61,4.56A10.55,10.55,0,0,0,367.2,154a8.69,8.69,0,0,0,2.81,2.37,7.7,7.7,0,0,0,3.68.87,7.32,7.32,0,0,0,3.56-.87A8.44,8.44,0,0,0,380,154a11.61,11.61,0,0,0,1.78-3.58A15.31,15.31,0,0,0,382.4,145.87Z"
    transform="translate(-8.06 -12.58)"/><path
    d="M417.57,125.86a19.43,19.43,0,0,1,7.66,1.48,17.55,17.55,0,0,1,6,4.13,18.41,18.41,0,0,1,3.87,6.37,23.59,23.59,0,0,1,1.36,8.19,23.35,23.35,0,0,1-1.36,8.11,18.4,18.4,0,0,1-3.87,6.37,18,18,0,0,1-6,4.17,19,19,0,0,1-7.66,1.52,18.74,18.74,0,0,1-7.62-1.52,18.05,18.05,0,0,1-6-4.17,18.4,18.4,0,0,1-3.87-6.37,23.35,23.35,0,0,1-1.36-8.11,23.59,23.59,0,0,1,1.36-8.19,18.41,18.41,0,0,1,3.87-6.37,17.61,17.61,0,0,1,6-4.13A19.15,19.15,0,0,1,417.57,125.86Zm0,31.69a8.12,8.12,0,0,0,6.75-3.33,10.75,10.75,0,0,0,1.71-3.63,18.61,18.61,0,0,0,0-9.13,10.77,10.77,0,0,0-1.71-3.63,8.4,8.4,0,0,0-13.49,0,10.77,10.77,0,0,0-1.71,3.63,17.39,17.39,0,0,0-.57,4.56,17.09,17.09,0,0,0,.57,4.49,11.18,11.18,0,0,0,1.71,3.67,8.15,8.15,0,0,0,2.84,2.47A8.24,8.24,0,0,0,417.57,157.55Z"
    transform="translate(-8.06 -12.58)"/><path
    d="M459.95,125.86a19.43,19.43,0,0,1,7.66,1.48,17.55,17.55,0,0,1,6,4.13,18.41,18.41,0,0,1,3.87,6.37,23.59,23.59,0,0,1,1.36,8.19,23.35,23.35,0,0,1-1.36,8.11,18.4,18.4,0,0,1-3.87,6.37,18,18,0,0,1-6,4.17,19,19,0,0,1-7.66,1.52,18.74,18.74,0,0,1-7.62-1.52,18.05,18.05,0,0,1-6-4.17,18.4,18.4,0,0,1-3.87-6.37,23.35,23.35,0,0,1-1.36-8.11,23.59,23.59,0,0,1,1.36-8.19,18.41,18.41,0,0,1,3.87-6.37,17.61,17.61,0,0,1,6-4.13A19.15,19.15,0,0,1,459.95,125.86Zm0,31.69a8.12,8.12,0,0,0,6.75-3.33,10.75,10.75,0,0,0,1.71-3.63,18.61,18.61,0,0,0,0-9.13,10.77,10.77,0,0,0-1.71-3.63,8.4,8.4,0,0,0-13.49,0,10.77,10.77,0,0,0-1.71,3.63,17.39,17.39,0,0,0-.57,4.56,17.09,17.09,0,0,0,.57,4.49,11.18,11.18,0,0,0,1.71,3.67,8.15,8.15,0,0,0,2.84,2.47A8.24,8.24,0,0,0,459.95,157.55Z"
    transform="translate(-8.06 -12.58)"/><path
    d="M511.5,159.44a10.72,10.72,0,0,1-1.1,1.78,10.87,10.87,0,0,1-2.16,2.16,13.66,13.66,0,0,1-3.37,1.86,12.84,12.84,0,0,1-4.74.8,15.52,15.52,0,0,1-6.44-1.36,14.75,14.75,0,0,1-5.23-3.94,19.32,19.32,0,0,1-3.49-6.29,25.56,25.56,0,0,1-1.29-8.41,25.82,25.82,0,0,1,1.29-8.49,19.34,19.34,0,0,1,3.49-6.29,14.76,14.76,0,0,1,5.23-3.94,15.52,15.52,0,0,1,6.44-1.36,12.83,12.83,0,0,1,4.74.8,14.55,14.55,0,0,1,3.37,1.82,9.4,9.4,0,0,1,2.12,2.12q.76,1.1,1.06,1.63V109.41H521V165.2H511.5Zm.08-13.34a15.69,15.69,0,0,0-.64-4.59,11.55,11.55,0,0,0-1.82-3.65,8.43,8.43,0,0,0-2.84-2.41,8.18,8.18,0,0,0-10.39,2.41,11.41,11.41,0,0,0-1.74,3.65,17.71,17.71,0,0,0,0,9.19,11.41,11.41,0,0,0,1.74,3.65,8.42,8.42,0,0,0,10.39,2.41,8.41,8.41,0,0,0,2.84-2.41,11.55,11.55,0,0,0,1.82-3.65A15.69,15.69,0,0,0,511.57,146.1Z"
    transform="translate(-8.06 -12.58)"/><path
    d="M539.85,165.2h-9.63V126.84h9.63v5.23a10,10,0,0,1,1.36-2,11,11,0,0,1,2.27-2,13.5,13.5,0,0,1,3.15-1.52,12.57,12.57,0,0,1,4.06-.61,14.06,14.06,0,0,1,7.66,2,13.61,13.61,0,0,1,4.93,5.42,13.33,13.33,0,0,1,1.52-2.43,11.9,11.9,0,0,1,2.5-2.39,14.61,14.61,0,0,1,3.6-1.86,14.06,14.06,0,0,1,4.81-.76,15.38,15.38,0,0,1,6.14,1.18,13.49,13.49,0,0,1,4.62,3.22,14.11,14.11,0,0,1,2.92,4.93,18.68,18.68,0,0,1,1,6.29V165.2h-9.7V143.37a9.76,9.76,0,0,0-1.93-6.33,7,7,0,0,0-5.8-2.39,7.19,7.19,0,0,0-5.87,2.43,9.54,9.54,0,0,0-2,6.29V165.2h-9.7V143.37a9.63,9.63,0,0,0-2-6.33,8.19,8.19,0,0,0-11.6,0,9.66,9.66,0,0,0-2,6.29Z"
    transform="translate(-8.06 -12.58)"/><path
    d="M615.35,125.86a18.84,18.84,0,0,1,7.47,1.44,16.08,16.08,0,0,1,5.72,4.06,18.35,18.35,0,0,1,3.64,6.33,25.09,25.09,0,0,1,1.29,8.26v1.59H606.71a12.64,12.64,0,0,0,2.65,7.54,8.2,8.2,0,0,0,6.75,3,10.64,10.64,0,0,0,3.34-.45,8.65,8.65,0,0,0,2.27-1.1,7,7,0,0,0,1.4-1.25q.49-.61.72-.91h9.4a12.46,12.46,0,0,1-1.21,3.52,13.61,13.61,0,0,1-3,3.87,16.4,16.4,0,0,1-5.16,3.15,20.87,20.87,0,0,1-7.81,1.29,19.87,19.87,0,0,1-7.92-1.52,17.22,17.22,0,0,1-6-4.21,18.62,18.62,0,0,1-3.79-6.41,23.71,23.71,0,0,1-1.33-8,24.83,24.83,0,0,1,1.29-8.19,18.42,18.42,0,0,1,3.68-6.37,16.63,16.63,0,0,1,5.76-4.13A18.6,18.6,0,0,1,615.35,125.86Zm0,7.43a7.79,7.79,0,0,0-5.76,2.12,10.28,10.28,0,0,0-2.73,5.76h16.83a10.42,10.42,0,0,0-2.8-5.84A7.64,7.64,0,0,0,615.35,133.29Z"
    transform="translate(-8.06 -12.58)"/><path
    d="M665.08,159.59a10.77,10.77,0,0,1-1.06,1.74,10.91,10.91,0,0,1-2.08,2.12,12.59,12.59,0,0,1-3.22,1.82,12.26,12.26,0,0,1-4.55.76,15,15,0,0,1-6.37-1.36,14.59,14.59,0,0,1-5.12-3.94,18.69,18.69,0,0,1-3.37-6.29,29.8,29.8,0,0,1,0-16.83,18.71,18.71,0,0,1,3.37-6.29,14.61,14.61,0,0,1,5.12-3.94,15,15,0,0,1,6.37-1.36,12.56,12.56,0,0,1,4.59.76,11.85,11.85,0,0,1,3.22,1.82,10.43,10.43,0,0,1,2,2.12,16.22,16.22,0,0,1,1,1.67v-5.53h9.63V165.2h-9.55Zm.08-13.49a14.09,14.09,0,0,0-2.24-8.25,7.93,7.93,0,0,0-12.74,0,16.46,16.46,0,0,0,0,16.57,7.93,7.93,0,0,0,12.74,0A14.23,14.23,0,0,0,665.16,146.1Z"
    transform="translate(-8.06 -12.58)"/><path
    d="M695.86,149.66a25.28,25.28,0,0,1-5.61-1.18,15,15,0,0,1-4.43-2.31,10.33,10.33,0,0,1-2.92-3.52,11.77,11.77,0,0,1,.08-9.93,10.45,10.45,0,0,1,3.22-3.75,15.83,15.83,0,0,1,5-2.35,23.58,23.58,0,0,1,6.48-.83,24.08,24.08,0,0,1,8.15,1.17A17.06,17.06,0,0,1,711,129.8a11.28,11.28,0,0,1,2.88,3.49,14.29,14.29,0,0,1,1.21,3.18h-9.55a3.77,3.77,0,0,0-.68-.81,7.74,7.74,0,0,0-1.48-1.07,10.51,10.51,0,0,0-2.35-1,11.9,11.9,0,0,0-3.3-.41,8.28,8.28,0,0,0-4.78,1.13,3.38,3.38,0,0,0-1.59,2.85q0,3.45,5.46,4l4.55.46q7.58.76,11,3.75t3.45,8.68a10.85,10.85,0,0,1-4.13,8.83q-4.13,3.37-12.24,3.37A24.54,24.54,0,0,1,691,165a18.93,18.93,0,0,1-5.61-3.11,12.72,12.72,0,0,1-3.18-3.79,11.62,11.62,0,0,1-1.25-3.41h9.85a5,5,0,0,0,.68,1.08,6.6,6.6,0,0,0,1.55,1.39,10,10,0,0,0,2.62,1.2,13,13,0,0,0,3.87.5,9,9,0,0,0,5.08-1.15,3.54,3.54,0,0,0,1.67-3.06,3.81,3.81,0,0,0-1.18-3,8.21,8.21,0,0,0-4.28-1.41Z"
    transform="translate(-8.06 -12.58)"/><path
    d="M739.83,166a22,22,0,0,1-7.66-1.21,15,15,0,0,1-5.46-3.41,14,14,0,0,1-3.3-5.27,20,20,0,0,1-1.1-6.78V126.84H732v22.09a8.89,8.89,0,0,0,1.93,5.94,7.17,7.17,0,0,0,5.8,2.28,7.31,7.31,0,0,0,5.8-2.28,8.68,8.68,0,0,0,2-5.94V126.84h9.55v22.52A19.22,19.22,0,0,1,756,156a14.68,14.68,0,0,1-3.26,5.27,15.15,15.15,0,0,1-5.42,3.52A20.32,20.32,0,0,1,739.83,166Z"
    transform="translate(-8.06 -12.58)"/><path d="M775.68,165.2h-9.63V126.84h9.63v6.22a11.18,11.18,0,0,1,1.17-2,8.14,8.14,0,0,1,2.24-2.08,14.74,14.74,0,0,1,3.53-1.63,16.31,16.31,0,0,1,5-.68h7v9.63h-8.42q-5.69,0-8.11,2.12t-2.43,6.6Z" transform="translate(-8.06 -12.58)"/><path
    d="M815.79,125.86a18.84,18.84,0,0,1,7.47,1.44,16.08,16.08,0,0,1,5.72,4.06,18.35,18.35,0,0,1,3.64,6.33,25.09,25.09,0,0,1,1.29,8.26v1.59H807.14a12.64,12.64,0,0,0,2.65,7.54,8.2,8.2,0,0,0,6.75,3,10.64,10.64,0,0,0,3.34-.45,8.65,8.65,0,0,0,2.27-1.1,7,7,0,0,0,1.4-1.25q.49-.61.72-.91h9.4a12.46,12.46,0,0,1-1.21,3.52,13.61,13.61,0,0,1-3,3.87,16.4,16.4,0,0,1-5.16,3.15,20.87,20.87,0,0,1-7.81,1.29,19.87,19.87,0,0,1-7.92-1.52,17.22,17.22,0,0,1-6-4.21,18.62,18.62,0,0,1-3.79-6.41,23.71,23.71,0,0,1-1.33-8,24.83,24.83,0,0,1,1.29-8.19,18.42,18.42,0,0,1,3.68-6.37,16.63,16.63,0,0,1,5.76-4.13A18.6,18.6,0,0,1,815.79,125.86Zm0,7.43a7.79,7.79,0,0,0-5.76,2.12,10.28,10.28,0,0,0-2.73,5.76h16.83a10.42,10.42,0,0,0-2.8-5.84A7.64,7.64,0,0,0,815.79,133.29Z"
    transform="translate(-8.06 -12.58)"/><path d="M840.58,152.32h11.6V165.2h-11.6Z" transform="translate(-8.06 -12.58)"/><path
    d="M878.18,166a22,22,0,0,1-7.66-1.21,15,15,0,0,1-5.46-3.41,14,14,0,0,1-3.3-5.27,20,20,0,0,1-1.1-6.78V126.84h9.7v22.09a8.89,8.89,0,0,0,1.93,5.94,7.17,7.17,0,0,0,5.8,2.28,7.31,7.31,0,0,0,5.8-2.28,8.68,8.68,0,0,0,2-5.94V126.84h9.55v22.52a19.22,19.22,0,0,1-1.1,6.6,14.68,14.68,0,0,1-3.26,5.27,15.15,15.15,0,0,1-5.42,3.52A20.32,20.32,0,0,1,878.18,166Z"
    transform="translate(-8.06 -12.58)"/><path
    d="M916.38,149.66a25.28,25.28,0,0,1-5.61-1.18,15,15,0,0,1-4.43-2.31,10.33,10.33,0,0,1-2.92-3.52,11.77,11.77,0,0,1,.08-9.93,10.45,10.45,0,0,1,3.22-3.75,15.83,15.83,0,0,1,5-2.35,23.58,23.58,0,0,1,6.48-.83,24.08,24.08,0,0,1,8.15,1.17,17.06,17.06,0,0,1,5.19,2.84,11.28,11.28,0,0,1,2.88,3.49,14.29,14.29,0,0,1,1.21,3.18h-9.55a3.77,3.77,0,0,0-.68-.81,7.74,7.74,0,0,0-1.48-1.07,10.51,10.51,0,0,0-2.35-1,11.9,11.9,0,0,0-3.3-.41,8.28,8.28,0,0,0-4.78,1.13,3.38,3.38,0,0,0-1.59,2.85q0,3.45,5.46,4l4.55.46q7.58.76,11,3.75t3.45,8.68a10.85,10.85,0,0,1-4.13,8.83q-4.13,3.37-12.24,3.37a24.54,24.54,0,0,1-8.53-1.29,18.93,18.93,0,0,1-5.61-3.11,12.72,12.72,0,0,1-3.18-3.79,11.62,11.62,0,0,1-1.25-3.41h9.85a5,5,0,0,0,.68,1.08,6.6,6.6,0,0,0,1.55,1.39,10,10,0,0,0,2.62,1.2,13,13,0,0,0,3.87.5,9,9,0,0,0,5.08-1.15,3.54,3.54,0,0,0,1.67-3.06,3.81,3.81,0,0,0-1.18-3,8.21,8.21,0,0,0-4.28-1.41Z"
    transform="translate(-8.06 -12.58)"/><path
    d="M213.38,206.84a57.08,57.08,0,0,0-3.07,7.85,76.22,76.22,0,0,0-2.35,9.85,76.88,76.88,0,0,0,0,24.07,75.82,75.82,0,0,0,2.35,9.89,61,61,0,0,0,3.07,7.92q1.67,3.49,3,6.06h-8.79q-1.36-2.58-3-6.14a73.78,73.78,0,0,1-5.31-17.93,73.68,73.68,0,0,1,2.31-33.58,69.9,69.9,0,0,1,3-7.92q1.59-3.49,3-6.14h8.79Q215.05,203.43,213.38,206.84Z"
    transform="translate(-8.06 -12.58)"/><path
    d="M241.58,263.09H230.21l15.46-19.71a11.1,11.1,0,0,1-3,1.33,15.45,15.45,0,0,1-4.17.49,17.63,17.63,0,0,1-6.82-1.29,15,15,0,0,1-5.31-3.64,16.94,16.94,0,0,1-3.45-5.65,20.49,20.49,0,0,1-1.25-7.32,19.91,19.91,0,0,1,1.4-7.5,17.29,17.29,0,0,1,4-6,18.55,18.55,0,0,1,6.37-4,23.68,23.68,0,0,1,8.53-1.44,24.57,24.57,0,0,1,8.57,1.4,18.06,18.06,0,0,1,6.41,3.94,17.3,17.3,0,0,1,4,6,20.14,20.14,0,0,1,1.4,7.58,24.42,24.42,0,0,1-.64,5.76,24,24,0,0,1-1.86,5.08,36.72,36.72,0,0,1-2.84,4.74q-1.63,2.31-3.52,4.81Zm-9.93-35.82a10.3,10.3,0,0,0,2.69,7.3q2.69,2.89,7.69,2.89a9.85,9.85,0,0,0,7.47-2.89,10.14,10.14,0,0,0,2.77-7.3,11,11,0,0,0-.68-3.88,9.14,9.14,0,0,0-2-3.2,9.65,9.65,0,0,0-3.22-2.17,11,11,0,0,0-4.32-.8,11.53,11.53,0,0,0-4.43.8,9.55,9.55,0,0,0-3.26,2.17,9.12,9.12,0,0,0-2,3.2A11,11,0,0,0,231.65,227.27Z"
    transform="translate(-8.06 -12.58)"/><path d="M290.55,263.09h-10V220.41L267.28,228v-9.4L283,209h7.5Z" transform="translate(-8.06 -12.58)"/><path d="M314,263.09H302.84l24.56-45H299.8v-8.87h39.42V216Z" transform="translate(-8.06 -12.58)"/><path
    d="M346.35,266.43a61.31,61.31,0,0,0,3.07-7.92,76.3,76.3,0,0,0,2.35-9.89,76.88,76.88,0,0,0,0-24.07,76.7,76.7,0,0,0-2.35-9.85,57.33,57.33,0,0,0-3.07-7.85q-1.67-3.41-3-6.06h8.79q1.36,2.65,3,6.14a61.46,61.46,0,0,1,3,7.92,81.29,81.29,0,0,1,2.31,9.85,74.73,74.73,0,0,1,0,23.73,83.05,83.05,0,0,1-2.31,9.89,64.9,64.9,0,0,1-3,8q-1.63,3.56-3,6.14h-8.79Q344.68,269.92,346.35,266.43Z"
    transform="translate(-8.06 -12.58)"/><path
    d="M426.63,248.54a14.62,14.62,0,0,1-1.33,6.25,13.8,13.8,0,0,1-3.83,4.89,18.16,18.16,0,0,1-6.1,3.18,27,27,0,0,1-8.15,1.14H405.1a26,26,0,0,1-8-1.14,17.8,17.8,0,0,1-6-3.18,14,14,0,0,1-3.79-4.89,14.6,14.6,0,0,1-1.33-6.25,14.24,14.24,0,0,1,.87-5.19,13.73,13.73,0,0,1,2.24-3.87,12.78,12.78,0,0,1,3-2.65,13,13,0,0,1,3.15-1.48A13.8,13.8,0,0,1,392.4,234a10.26,10.26,0,0,1-2.65-2.39,13.46,13.46,0,0,1-2-3.53,13.13,13.13,0,0,1-.8-4.78,15,15,0,0,1,1.17-6,12.55,12.55,0,0,1,3.52-4.7,17.49,17.49,0,0,1,5.72-3.11,24.56,24.56,0,0,1,7.85-1.14h2a24.92,24.92,0,0,1,7.88,1.14,17.45,17.45,0,0,1,5.76,3.11,12.57,12.57,0,0,1,3.52,4.7,15,15,0,0,1,1.18,6,13.13,13.13,0,0,1-.8,4.78,12.86,12.86,0,0,1-2,3.53,11.17,11.17,0,0,1-2.65,2.39,13,13,0,0,1-2.8,1.36,13.54,13.54,0,0,1,3.07,1.48,12.81,12.81,0,0,1,3,2.65,14.48,14.48,0,0,1,2.27,3.87A13.71,13.71,0,0,1,426.63,248.54Zm-21.23-8.95a9.86,9.86,0,0,0-6.67,2.22,7.47,7.47,0,0,0-2.58,6,7.36,7.36,0,0,0,2.58,5.93,10,10,0,0,0,6.67,2.18h1.82a10,10,0,0,0,6.67-2.18,7.36,7.36,0,0,0,2.58-5.93,7.45,7.45,0,0,0-2.58-6,10,10,0,0,0-6.67-2.18Zm.15-23.12a9.33,9.33,0,0,0-6.25,2,7.47,7.47,0,0,0,0,11,9.32,9.32,0,0,0,6.25,2h1.52a9.33,9.33,0,0,0,6.25-2,7.47,7.47,0,0,0,0-11,9.33,9.33,0,0,0-6.25-2Z"
    transform="translate(-8.06 -12.58)"/><path
    d="M474.16,248.54a14.62,14.62,0,0,1-1.33,6.25,13.8,13.8,0,0,1-3.83,4.89,18.16,18.16,0,0,1-6.1,3.18,27,27,0,0,1-8.15,1.14h-2.12a26,26,0,0,1-8-1.14,17.8,17.8,0,0,1-6-3.18,14,14,0,0,1-3.79-4.89,14.6,14.6,0,0,1-1.33-6.25,14.24,14.24,0,0,1,.87-5.19,13.73,13.73,0,0,1,2.24-3.87,12.78,12.78,0,0,1,3-2.65,13,13,0,0,1,3.15-1.48,13.8,13.8,0,0,1-2.84-1.36,10.26,10.26,0,0,1-2.65-2.39,13.46,13.46,0,0,1-2-3.53,13.13,13.13,0,0,1-.8-4.78,15,15,0,0,1,1.17-6,12.55,12.55,0,0,1,3.52-4.7,17.49,17.49,0,0,1,5.72-3.11,24.56,24.56,0,0,1,7.85-1.14h2a24.92,24.92,0,0,1,7.88,1.14,17.45,17.45,0,0,1,5.76,3.11,12.57,12.57,0,0,1,3.52,4.7,15,15,0,0,1,1.18,6,13.13,13.13,0,0,1-.8,4.78,12.86,12.86,0,0,1-2,3.53,11.17,11.17,0,0,1-2.65,2.39,13,13,0,0,1-2.8,1.36,13.54,13.54,0,0,1,3.07,1.48,12.81,12.81,0,0,1,3,2.65,14.48,14.48,0,0,1,2.27,3.87A13.71,13.71,0,0,1,474.16,248.54Zm-21.23-8.95a9.86,9.86,0,0,0-6.67,2.22,7.47,7.47,0,0,0-2.58,6,7.36,7.36,0,0,0,2.58,5.93,10,10,0,0,0,6.67,2.18h1.82a10,10,0,0,0,6.67-2.18,7.36,7.36,0,0,0,2.58-5.93,7.45,7.45,0,0,0-2.58-6,10,10,0,0,0-6.67-2.18Zm.15-23.12a9.33,9.33,0,0,0-6.25,2,7.47,7.47,0,0,0,0,11,9.32,9.32,0,0,0,6.25,2h1.52a9.33,9.33,0,0,0,6.25-2,7.47,7.47,0,0,0,0-11,9.33,9.33,0,0,0-6.25-2Z"
    transform="translate(-8.06 -12.58)"/><path
    d="M521.16,263.09h-39.8v-6.52l19.1-18a44,44,0,0,0,5.69-6.38,11,11,0,0,0,2-6.46,8.32,8.32,0,0,0-2.16-5.93,8.06,8.06,0,0,0-6.18-2.3,7.88,7.88,0,0,0-6.18,2.49,9.21,9.21,0,0,0-2.24,6.4v3.16h-9.85V226.1a19.83,19.83,0,0,1,1.21-7,15.78,15.78,0,0,1,3.56-5.65,16.61,16.61,0,0,1,5.76-3.75,20.68,20.68,0,0,1,7.73-1.36,22.6,22.6,0,0,1,7.81,1.25,16.54,16.54,0,0,1,5.8,3.53,15.08,15.08,0,0,1,3.64,5.42,19.6,19.6,0,0,1,.38,12.67,19.59,19.59,0,0,1-2.46,4.93,35.57,35.57,0,0,1-3.71,4.51q-2.12,2.2-4.62,4.55l-9.55,9h24.11Z"
    transform="translate(-8.06 -12.58)"/><path d="M527.07,236.1h25.24V245H527.07Z" transform="translate(-8.06 -12.58)"/><path
    d="M581.73,208.28a23.5,23.5,0,0,1,8.23,1.36,16.8,16.8,0,0,1,6.22,3.94,17.8,17.8,0,0,1,3.94,6.29,23.48,23.48,0,0,1,1.4,8.34v15.92a23.93,23.93,0,0,1-1.4,8.49,16.53,16.53,0,0,1-10.23,10.12,25.69,25.69,0,0,1-16.3,0,16.53,16.53,0,0,1-10.23-10.12,23.91,23.91,0,0,1-1.4-8.49V228.22a23.46,23.46,0,0,1,1.4-8.34,17.77,17.77,0,0,1,3.94-6.29,16.78,16.78,0,0,1,6.22-3.94A23.5,23.5,0,0,1,581.73,208.28Zm0,46.7q4.85,0,7.32-3.11a12.3,12.3,0,0,0,2.46-7.88V228.37a12.31,12.31,0,0,0-2.46-7.88q-2.46-3.11-7.32-3.11t-7.35,3.11a12.43,12.43,0,0,0-2.43,7.88V244a12.42,12.42,0,0,0,2.43,7.88Q576.8,255,581.73,255Z"
    transform="translate(-8.06 -12.58)"/><path
    d="M650.41,245.05a19.93,19.93,0,0,1-1.4,7.51,17,17,0,0,1-4.06,6,18.94,18.94,0,0,1-6.41,4A23.68,23.68,0,0,1,630,264a24.57,24.57,0,0,1-8.57-1.4,18,18,0,0,1-6.41-3.94,16.84,16.84,0,0,1-4-6,20.62,20.62,0,0,1-1.36-7.58,24.38,24.38,0,0,1,.64-5.76,25.28,25.28,0,0,1,1.82-5.08,36.14,36.14,0,0,1,2.77-4.74q1.59-2.31,3.56-4.81l11.9-15.39h11.45L626.38,228.9a10.35,10.35,0,0,1,3-1.29,16.33,16.33,0,0,1,4.09-.46,17.65,17.65,0,0,1,6.82,1.29,15.47,15.47,0,0,1,5.34,3.64,16.66,16.66,0,0,1,3.49,5.65A20.48,20.48,0,0,1,650.41,245.05Zm-10.08,0a10.31,10.31,0,0,0-2.69-7.3q-2.69-2.89-7.69-2.89a9.88,9.88,0,0,0-7.43,2.89,10.06,10.06,0,0,0-2.81,7.3,10.47,10.47,0,0,0,.72,3.88,9.9,9.9,0,0,0,2,3.2,9.21,9.21,0,0,0,3.18,2.17,11,11,0,0,0,4.32.8,11.52,11.52,0,0,0,4.43-.8,9.54,9.54,0,0,0,3.26-2.17,9.14,9.14,0,0,0,2-3.2A11,11,0,0,0,640.33,245.09Z"
    transform="translate(-8.06 -12.58)"/><path
    d="M697.41,248.54a14.62,14.62,0,0,1-1.33,6.25,13.8,13.8,0,0,1-3.83,4.89,18.16,18.16,0,0,1-6.1,3.18A27,27,0,0,1,678,264h-2.12a26,26,0,0,1-8-1.14,17.8,17.8,0,0,1-6-3.18,14,14,0,0,1-3.79-4.89,14.6,14.6,0,0,1-1.33-6.25,14.24,14.24,0,0,1,.87-5.19,13.73,13.73,0,0,1,2.24-3.87,12.78,12.78,0,0,1,3-2.65,13,13,0,0,1,3.15-1.48,13.8,13.8,0,0,1-2.84-1.36,10.26,10.26,0,0,1-2.65-2.39,13.46,13.46,0,0,1-2-3.53,13.13,13.13,0,0,1-.8-4.78,15,15,0,0,1,1.17-6,12.55,12.55,0,0,1,3.52-4.7,17.49,17.49,0,0,1,5.72-3.11,24.56,24.56,0,0,1,7.85-1.14h2A24.92,24.92,0,0,1,686,209.5a17.45,17.45,0,0,1,5.76,3.11,12.57,12.57,0,0,1,3.52,4.7,15,15,0,0,1,1.18,6,13.13,13.13,0,0,1-.8,4.78,12.86,12.86,0,0,1-2,3.53A11.17,11.17,0,0,1,691,234a13,13,0,0,1-2.8,1.36,13.54,13.54,0,0,1,3.07,1.48,12.81,12.81,0,0,1,3,2.65,14.48,14.48,0,0,1,2.27,3.87A13.71,13.71,0,0,1,697.41,248.54Zm-21.23-8.95a9.86,9.86,0,0,0-6.67,2.22,7.47,7.47,0,0,0-2.58,6,7.36,7.36,0,0,0,2.58,5.93,10,10,0,0,0,6.67,2.18H678a10,10,0,0,0,6.67-2.18,7.36,7.36,0,0,0,2.58-5.93,7.45,7.45,0,0,0-2.58-6,10,10,0,0,0-6.67-2.18Zm.15-23.12a9.33,9.33,0,0,0-6.25,2,7.47,7.47,0,0,0,0,11,9.32,9.32,0,0,0,6.25,2h1.52a9.33,9.33,0,0,0,6.25-2,7.47,7.47,0,0,0,0-11,9.33,9.33,0,0,0-6.25-2Z"
    transform="translate(-8.06 -12.58)"/><path
    d="M744.95,245.05a19.93,19.93,0,0,1-1.4,7.51,17,17,0,0,1-4.06,6,18.94,18.94,0,0,1-6.41,4,23.68,23.68,0,0,1-8.53,1.44,24.57,24.57,0,0,1-8.57-1.4,18,18,0,0,1-6.41-3.94,16.84,16.84,0,0,1-4-6,20.62,20.62,0,0,1-1.36-7.58,24.38,24.38,0,0,1,.64-5.76,25.28,25.28,0,0,1,1.82-5.08,36.14,36.14,0,0,1,2.77-4.74q1.59-2.31,3.56-4.81l11.9-15.39h11.45L720.91,228.9a10.35,10.35,0,0,1,3-1.29,16.33,16.33,0,0,1,4.09-.46,17.65,17.65,0,0,1,6.82,1.29,15.47,15.47,0,0,1,5.34,3.64,16.66,16.66,0,0,1,3.49,5.65A20.48,20.48,0,0,1,744.95,245.05Zm-10.08,0a10.31,10.31,0,0,0-2.69-7.3q-2.69-2.89-7.69-2.89a9.88,9.88,0,0,0-7.43,2.89,10.06,10.06,0,0,0-2.81,7.3A10.47,10.47,0,0,0,715,249a9.9,9.9,0,0,0,2,3.2,9.21,9.21,0,0,0,3.18,2.17,11,11,0,0,0,4.32.8,11.52,11.52,0,0,0,4.43-.8,9.54,9.54,0,0,0,3.26-2.17,9.14,9.14,0,0,0,2-3.2A11,11,0,0,0,734.86,245.09Z"
    transform="translate(-8.06 -12.58)"/></g><rect x="319.94" y="65.42" width="293" height="8"/></svg>
